<svg xmlns="http://www.w3.org/2000/svg" width="120" height="122" viewBox="0 0 120 122">
  <g fill="none" fill-rule="evenodd">
    <polygon fill="#D93337" fill-rule="nonzero" points="28.849 122 0 29.081 91.151 0 120 92.504"/>
    <g fill="#FFF" transform="translate(19.096 55.738)">
      <path d="M8.14128211,16.0037143 C10.5213622,16.0037143 12.2763708,16.9730674 12.2763708,16.9730674 L10.8819804,19.7841911 C10.8819804,19.7841911 9.43950763,19.0087087 8.14128211,19.0087087 C7.20367478,19.0087087 6.81901536,19.1783454 6.81901536,19.7599573 C6.81901536,20.4142705 7.68449905,20.6081411 8.74231244,20.9474147 C10.377115,21.456325 12.4927418,22.3772104 12.4927418,24.921762 C12.4927418,28.5810696 9.17505429,29.1626814 6.65072687,29.1626814 C3.66961639,29.1626814 1.89056659,27.4905475 1.89056659,27.4905475 L3.62153397,24.5582546 C3.62153397,24.5582546 5.30441891,25.9880503 6.67476808,25.9880503 C7.27579842,25.9880503 7.99703482,25.9153489 7.99703482,25.0913988 C7.99703482,24.1947473 6.65072687,24.1220458 5.25633648,23.395031 C4.00619338,22.7407178 2.75605028,21.8683 2.75605028,20.0022955 C2.75605028,17.4577439 4.89571828,16.0037143 8.14128211,16.0037143 Z M13.5780308,28.7991741 L13.5780308,7.95808438 L17.8333256,7.95808438 L17.8333256,28.7991741 L13.5780308,28.7991741 Z M18.7984086,22.5953148 C18.7984086,18.960241 21.322736,16.0037143 24.9289181,16.0037143 C26.5877618,16.0037143 27.958111,16.5610923 28.9678419,17.5546792 L28.9678419,16.3672217 L33.2231367,16.3672217 L33.2231367,28.7991741 L29.0159243,28.7991741 L29.0159243,27.3936122 L28.9678419,27.3936122 C28.0542758,28.4114328 26.611803,29.1626814 24.9289181,29.1626814 C21.322736,29.1626814 18.7984086,26.2303886 18.7984086,22.5953148 Z M23.3181567,22.5953148 C23.3181567,24.2916826 24.472135,25.5033738 26.2031024,25.5033738 C27.8619461,25.5033738 29.0640068,24.2916826 29.0640068,22.5953148 C29.0640068,20.8747132 27.7898225,19.663022 26.2031024,19.663022 C24.5923411,19.663022 23.3181567,20.8747132 23.3181567,22.5953148 Z M40.3427704,16.0037143 C42.7228505,16.0037143 44.4778591,16.9730674 44.4778591,16.9730674 L43.0834687,19.7841911 C43.0834687,19.7841911 41.6409959,19.0087087 40.3427704,19.0087087 C39.405163,19.0087087 39.0205036,19.1783454 39.0205036,19.7599573 C39.0205036,20.4142705 39.8859873,20.6081411 40.9438007,20.9474147 C42.5786032,21.456325 44.69423,22.3772104 44.69423,24.921762 C44.69423,28.5810696 41.3765426,29.1626814 38.8522151,29.1626814 C35.8711047,29.1626814 34.0920549,27.4905475 34.0920549,27.4905475 L35.8230222,24.5582546 C35.8230222,24.5582546 37.5059072,25.9880503 38.8762563,25.9880503 C39.4772867,25.9880503 40.1985231,25.9153489 40.1985231,25.0913988 C40.1985231,24.1947473 38.8522151,24.1220458 37.4578247,23.395031 C36.2076816,22.7407178 34.9575385,21.8683 34.9575385,20.0022955 C34.9575385,17.4577439 37.0972065,16.0037143 40.3427704,16.0037143 Z M45.7795191,28.7991741 L45.7795191,7.95808438 L50.0348139,7.95808438 L50.0348139,17.6758483 L50.0828963,17.6758483 C51.0445448,16.7064953 52.2706467,16.0037143 53.6169547,16.0037143 C55.8768288,16.0037143 59.0262277,17.1427041 59.0262277,20.6081411 L59.0262277,28.7991741 L54.7709329,28.7991741 L54.7709329,21.7713647 C54.7709329,20.5354397 53.9294905,19.3479822 52.5591413,19.3479822 C51.284957,19.3479822 50.0348139,20.5354397 50.0348139,21.7713647 L50.0348139,28.7991741 L45.7795191,28.7991741 Z" transform="rotate(-17 30.458 18.56)"/>
      <path d="M15.7040631,40.8824128 C14.0933018,40.8824128 12.771035,42.239507 12.771035,43.9358748 C12.771035,45.6564764 14.0933018,47.0135706 15.7040631,47.0135706 C16.9782474,47.0135706 17.7716074,46.4319588 17.7716074,46.4319588 L19.2140802,49.4127193 C19.2140802,49.4127193 17.8196899,50.5274753 15.0789915,50.5274753 C11.5208919,50.5274753 8.25128688,47.6194162 8.25128688,43.9843425 C8.25128688,40.3250349 11.4968507,37.3685082 15.0789915,37.3685082 C17.8196899,37.3685082 19.2140802,38.5317318 19.2140802,38.5317318 L17.7716074,41.4640246 C17.7716074,41.4640246 16.9782474,40.8824128 15.7040631,40.8824128 Z M19.8666275,50.1639679 L19.8666275,29.3228782 L24.1219223,29.3228782 L24.1219223,50.1639679 L19.8666275,50.1639679 Z M29.9914128,37.7320156 L29.9914128,43.6450689 C29.9914128,46.0926852 30.6405256,47.0378044 32.4195754,47.0378044 C34.1986252,47.0378044 34.8477379,46.0926852 34.8477379,43.6450689 L34.8477379,37.7320156 L39.1030327,37.7320156 L39.1030327,44.6871234 C39.1030327,48.8553413 37.0354884,50.5274753 32.4195754,50.5274753 C27.8036624,50.5274753 25.736118,48.8553413 25.736118,44.6871234 L25.736118,37.7320156 L29.9914128,37.7320156 Z M55.1419566,43.9601086 C55.1419566,47.5951824 52.6176292,50.5274753 49.0114472,50.5274753 C47.3285622,50.5274753 45.8860894,49.7762267 44.9725233,48.758406 L44.9244409,48.758406 L44.9244409,50.1639679 L40.7172285,50.1639679 L40.7172285,29.3228782 L44.9725233,29.3228782 L44.9725233,38.919473 C45.9822543,37.9258862 47.3526034,37.3685082 49.0114472,37.3685082 C52.6176292,37.3685082 55.1419566,40.3250349 55.1419566,43.9601086 Z M50.6222085,43.9601086 C50.6222085,42.239507 49.3480241,41.0278158 47.7372628,41.0278158 C46.1505428,41.0278158 44.8763584,42.239507 44.8763584,43.9601086 C44.8763584,45.6564764 46.0784191,46.8681677 47.7372628,46.8681677 C49.4682302,46.8681677 50.6222085,45.6564764 50.6222085,43.9601086 Z" transform="rotate(-17 31.697 39.925)"/>
      <polygon fill-rule="nonzero" points="3.641 30.396 62.026 10.801 62.438 12.117 3.984 31.504"/>
    </g>
  </g>
</svg>
