<svg xmlns="http://www.w3.org/2000/svg" width="75" height="74" viewBox="0 0 75 74">
  <g fill="none" fill-rule="evenodd">
    <ellipse cx="37.437" cy="36.99" fill="#ECEFF1" opacity=".214" rx="37.437" ry="36.99"/>
    <g fill="#D4DCE0" fill-rule="nonzero" transform="translate(22.497 16.223)">
      <path d="M25.4704499 6.00684461L22.4767072 6.00684461C20.8240223 6.00860442 19.4847187 7.35221871 19.4829646 9.01022291L19.4829646 9.08290303C21.3062418 10.1225103 22.4430273 12.0545168 22.469252 14.1582806 22.8936718 14.3184233 23.2529244 14.6156551 23.4905258 15.003165 23.6675209 15.270832 24.0272998 15.3438641 24.294108 15.1662993 24.3586612 15.12336 24.4139174 15.067838 24.4567189 15.003165 25.0418201 14.0283187 26.3039405 13.7138408 27.2757469 14.3008252 27.3980998 14.3747372 27.5124713 14.4613198 27.6170194 14.5590772L28.4642802 13.5407636 28.4642802 9.01022291C28.4624384 7.35221871 27.1231347 6.00860442 25.4704499 6.00684461zM25.4708007.00184779962L22.4770581.000351961833C22.0636895.000175980916 21.7284689.33612355 21.7282058.750822579 21.7282058.75091057 21.7282058.751086551 21.7282058.751174541L21.7282058 1.50173315 25.4704499 1.50173315 26.2188636 1.50173315 26.2188636.752670379C26.2188636.338147331 25.8839938.00202378054 25.4708007.00184779962zM11.9984764 5.25593404C11.9984764 4.01192494 10.9931654 3.00337831 9.75314747 3.00337831 8.51312949 3.00337831 7.50781856 4.01183695 7.50781856 5.25593404L7.50781856 14.1612723C8.43656027 13.767779 9.51212544 14.1283639 10.0184647 15.003077 10.1426594 15.1917286 10.3682448 15.2863183 10.5892694 15.2423231 10.2793087 13.4680835 10.7988042 11.6492327 11.9984764 10.3089621L11.9984764 5.25593404zM8.4755904 7.7285539L9.22400414 6.97773132C9.51887897 6.68718683 9.99267846 6.69149836 10.2822908 6.98732228 10.5682194 7.27936261 10.5682194 7.74738386 10.2822908 8.03942419L9.53387707 8.79024677C9.23900223 9.08079126 8.76520275 9.07647973 8.4755904 8.78065581 8.1896618 8.48861548 8.1896618 8.02059423 8.4755904 7.7285539zM10.2822908 11.0428025L9.53387707 11.7936251C9.23900223 12.0841696 8.76520275 12.079946 8.4755904 11.7841221 8.1896618 11.4920818 8.1896618 11.0239725 8.4755904 10.7319322L9.22400414 9.98110963C9.51887897 9.69056514 9.99267846 9.69478868 10.2822908 9.9906126 10.5683071 10.2826529 10.5683071 10.7506742 10.2822908 11.0428025zM23.9735347 3.00337831C23.5601661 3.00337831 23.225121 3.33950186 23.225121 3.75420089L23.225121 4.50511146 24.7220361 4.50511146 24.7220361 3.75428888C24.7220361 3.33958985 24.3869033 3.00337831 23.9735347 3.00337831z"/>
      <path d="M28.1477415,16.2639803 C28.0807324,16.3148388 28.0167932,16.3697448 27.9562746,16.4282585 C27.9493456,16.432394 27.9414519,16.4320421 27.9345229,16.4359137 C27.8847924,16.460111 27.8324306,16.478501 27.7784901,16.4907317 C27.6053542,16.5612121 27.4089756,16.5441419 27.2505747,16.4447127 C27.2025983,16.4249149 27.1569024,16.4001015 27.1142762,16.3705367 C27.1079612,16.3655213 27.1000675,16.3645534 27.0938402,16.359362 C27.0432326,16.2919613 26.9885904,16.2278162 26.9300891,16.1672788 L26.6983641,15.7766891 C26.5360163,15.510958 26.1895691,15.427543 25.9246904,15.5904133 C25.8480335,15.6375762 25.7837434,15.7024252 25.7372581,15.7795928 C25.1531217,16.7567269 23.8900365,17.0738445 22.9160374,16.487828 C22.627039,16.3139589 22.3850522,16.0715452 22.21139,15.7817926 C22.034395,15.5141256 21.6746161,15.4410935 21.4078079,15.6186583 C21.3432547,15.6615976 21.2879985,15.7171196 21.2451969,15.7817926 C20.6599204,16.7581347 19.3964843,17.0736685 18.4232746,16.4865962 C18.135241,16.312815 17.8939558,16.0708412 17.7207322,15.7817926 C17.5437371,15.5141256 17.1839583,15.4410935 16.91715,15.6186583 C16.8525968,15.6615976 16.7973407,15.7171196 16.7545391,15.7817926 C16.1692625,16.7581347 14.9058265,17.0736685 13.9326167,16.4865962 C13.6445831,16.312815 13.403298,16.0708412 13.2300744,15.7817926 C13.0530793,15.5141256 12.6933004,15.4410935 12.4264922,15.6186583 C12.361939,15.6615976 12.3066829,15.7171196 12.2638813,15.7817926 C11.6786047,16.7581347 10.4151687,17.0736685 9.44195892,16.4865962 C9.15392532,16.312815 8.91264017,16.0708412 8.73941655,15.7817926 C8.56242148,15.5141256 8.20264261,15.4410935 7.93583438,15.6186583 C7.87128117,15.6615976 7.81602503,15.7171196 7.77322345,15.7817926 C7.64815161,15.980739 7.49027692,16.1568959 7.30635291,16.3027841 C7.25135989,16.3598899 7.18768377,16.4078447 7.11760495,16.4447127 C6.18000471,17.0649574 4.91867365,16.8052096 4.30041883,15.8645036 C4.28261407,15.8373146 4.26533556,15.8097736 4.24884643,15.7817926 C4.07185136,15.5141256 3.71207249,15.4410935 3.44526426,15.6186583 C3.38071105,15.6615976 3.32545491,15.7171196 3.28265333,15.7817926 L3.05461211,16.1671028 C3.02891362,16.2012431 3.00014534,16.2329197 2.96874582,16.2618685 C2.94567858,16.2965368 2.91962925,16.3290932 2.89094868,16.359186 C2.88472141,16.3644654 2.87682767,16.3653453 2.87051268,16.3703608 C2.82788652,16.3999256 2.78210286,16.4248269 2.7342142,16.4445367 C2.6943947,16.4681182 2.6524702,16.487828 2.60905466,16.5036663 C2.56686703,16.5116734 2.52415316,16.516073 2.48126387,16.5166889 C2.4300423,16.525048 2.37803136,16.5280397 2.32619584,16.5255759 C2.28532384,16.5173048 2.24524121,16.5056021 2.20629878,16.4906437 C2.15235826,16.478413 2.09999649,16.460023 2.05026596,16.4358257 C2.04333702,16.4319541 2.03544329,16.432306 2.02851434,16.4281705 C1.99413274,16.4022133 1.96211926,16.3731765 1.93300015,16.3413239 C1.89879397,16.3183584 1.86669278,16.2924892 1.83695972,16.2638923 L0.0235934952,14.0846326 L0.0235934952,37.2059733 C0.024032036,37.7327722 0.208131465,38.2429409 0.543966013,38.6479609 L2.246206,40.6969947 C2.95629126,41.5540218 4.01001711,42.0491441 5.12084096,42.0476483 L24.8639479,42.0476483 C25.9747718,42.0491441 27.0284976,41.5540218 27.7385829,40.6969947 L29.4408229,38.6479609 C29.7766574,38.2429409 29.9607569,37.7328602 29.9611954,37.2059733 L29.9611954,14.0846326 L28.1477415,16.2639803 Z M3.01716073,36.7917142 C3.01716073,37.2064133 2.68211555,37.5425368 2.26874699,37.5425368 C1.85537843,37.5425368 1.52033326,37.2064133 1.52033326,36.7917142 L1.52033326,20.2730016 C1.52033326,19.8583025 1.85537843,19.522179 2.26874699,19.522179 C2.68211555,19.522179 3.01716073,19.8583025 3.01716073,20.2730016 L3.01716073,36.7917142 Z M28.4641925,36.7917142 C28.4641925,37.2064133 28.1291473,37.5425368 27.7157788,37.5425368 C27.3024102,37.5425368 26.967365,37.2064133 26.967365,36.7917142 L26.967365,20.2730016 C26.967365,19.8583025 27.3024979,19.522179 27.7157788,19.522179 C28.1290596,19.522179 28.4641925,19.8583025 28.4641925,20.2730016 L28.4641925,36.7917142 Z"/>
      <path d="M18.41503 10.1999419C16.6820922 9.39729294 14.6341943 9.76333325 13.2841026 11.1168905 12.4848181 11.9292184 12.026543 13.0181003 12.0035635 14.1592485 12.9314281 13.7690989 14.0038358 14.1302997 14.5091225 15.003165 14.6861176 15.270832 15.0458964 15.3438641 15.3127047 15.1662993 15.3772579 15.12336 15.432514 15.067838 15.4753156 15.003165 16.0605921 14.0268229 17.3240282 13.7112891 18.2972379 14.2983615 18.5852715 14.4721426 18.8265567 14.7141164 18.9997803 15.003165 19.1767754 15.270832 19.5365543 15.3438641 19.8033625 15.1662993 19.8679157 15.12336 19.9231718 15.067838 19.9659734 15.003165 20.2007682 14.6204065 20.5544952 14.3257265 20.9726 14.164352 20.9464629 12.4607687 19.9534311 10.9215516 18.41503 10.1999419zM3.76557446 0C2.52555649 0 1.52024555 1.00854663 1.52024555 2.25255573L1.52024555 13.5406756 2.36829576 14.5597811C2.74623022 14.2022759 3.24607903 14.0031535 3.76557446 14.0032415 4.48758804 14.0014817 5.15715214 14.3814245 5.52780683 15.002989 5.63235496 15.1685871 5.8155773 15.2672244 6.01090338 15.2632139L6.01090338 2.25255573C6.01090338 1.00854663 5.00568015 0 3.76557446 0zM2.48801739 4.7250876L3.23643113 3.97426502C3.53130597 3.68372053 4.00510545 3.68803206 4.2947178 3.98394397 4.58055869 4.2759843 4.58055869 4.74391756 4.2947178 5.03595789L3.54630406 5.78678047C3.25142923 6.07732496 2.77762974 6.07301343 2.48801739 5.77710152 2.2021765 5.48514918 2.2021765 5.01712793 2.48801739 4.7250876zM2.48801739 7.7285539L3.23643113 6.97764333C3.53130597 6.68709884 4.00510545 6.69141037 4.2947178 6.98732228 4.58055869 7.27936261 4.58055869 7.74729587 4.2947178 8.0393362L3.54630406 8.79015878C3.25142923 9.08070327 2.77762974 9.07639174 2.48801739 8.78047983 2.2021765 8.48852749 2.2021765 8.02059423 2.48801739 7.7285539zM4.2947178 11.0428025L3.54630406 11.7936251C3.25142923 12.0841696 2.77762974 12.079858 2.48801739 11.7840341 2.20208879 11.4919938 2.20208879 11.0239725 2.48801739 10.7319322L3.23643113 9.98110963C3.53130597 9.69056514 4.00510545 9.69487667 4.2947178 9.99070059 4.5806464 10.2827409 4.5806464 10.7507622 4.2947178 11.0428025z"/>
    </g>
  </g>
</svg>
